<svg xmlns="http://www.w3.org/2000/svg" width="22" height="28" viewBox="0 0 22 28" shape-rendering="crispEdges"><rect x="1" y="1" width="4" height="4" fill="#05060f"/><rect x="1" y="3" width="4" height="4" fill="#05060f"/><rect x="3" y="3" width="4" height="4" fill="#05060f"/><rect x="1" y="5" width="4" height="4" fill="#05060f"/><rect x="3" y="5" width="4" height="4" fill="#05060f"/><rect x="5" y="5" width="4" height="4" fill="#05060f"/><rect x="1" y="7" width="4" height="4" fill="#05060f"/><rect x="3" y="7" width="4" height="4" fill="#05060f"/><rect x="5" y="7" width="4" height="4" fill="#05060f"/><rect x="7" y="7" width="4" height="4" fill="#05060f"/><rect x="1" y="9" width="4" height="4" fill="#05060f"/><rect x="3" y="9" width="4" height="4" fill="#05060f"/><rect x="5" y="9" width="4" height="4" fill="#05060f"/><rect x="7" y="9" width="4" height="4" fill="#05060f"/><rect x="9" y="9" width="4" height="4" fill="#05060f"/><rect x="1" y="11" width="4" height="4" fill="#05060f"/><rect x="3" y="11" width="4" height="4" fill="#05060f"/><rect x="5" y="11" width="4" height="4" fill="#05060f"/><rect x="7" y="11" width="4" height="4" fill="#05060f"/><rect x="9" y="11" width="4" height="4" fill="#05060f"/><rect x="11" y="11" width="4" height="4" fill="#05060f"/><rect x="1" y="13" width="4" height="4" fill="#05060f"/><rect x="3" y="13" width="4" height="4" fill="#05060f"/><rect x="5" y="13" width="4" height="4" fill="#05060f"/><rect x="7" y="13" width="4" height="4" fill="#05060f"/><rect x="9" y="13" width="4" height="4" fill="#05060f"/><rect x="11" y="13" width="4" height="4" fill="#05060f"/><rect x="13" y="13" width="4" height="4" fill="#05060f"/><rect x="1" y="15" width="4" height="4" fill="#05060f"/><rect x="3" y="15" width="4" height="4" fill="#05060f"/><rect x="5" y="15" width="4" height="4" fill="#05060f"/><rect x="7" y="15" width="4" height="4" fill="#05060f"/><rect x="9" y="15" width="4" height="4" fill="#05060f"/><rect x="11" y="15" width="4" height="4" fill="#05060f"/><rect x="13" y="15" width="4" height="4" fill="#05060f"/><rect x="15" y="15" width="4" height="4" fill="#05060f"/><rect x="1" y="17" width="4" height="4" fill="#05060f"/><rect x="3" y="17" width="4" height="4" fill="#05060f"/><rect x="5" y="17" width="4" height="4" fill="#05060f"/><rect x="7" y="17" width="4" height="4" fill="#05060f"/><rect x="9" y="17" width="4" height="4" fill="#05060f"/><rect x="11" y="17" width="4" height="4" fill="#05060f"/><rect x="13" y="17" width="4" height="4" fill="#05060f"/><rect x="15" y="17" width="4" height="4" fill="#05060f"/><rect x="17" y="17" width="4" height="4" fill="#05060f"/><rect x="5" y="19" width="4" height="4" fill="#05060f"/><rect x="7" y="19" width="4" height="4" fill="#05060f"/><rect x="9" y="19" width="4" height="4" fill="#05060f"/><rect x="5" y="21" width="4" height="4" fill="#05060f"/><rect x="7" y="21" width="4" height="4" fill="#05060f"/><rect x="9" y="21" width="4" height="4" fill="#05060f"/><rect x="5" y="23" width="4" height="4" fill="#05060f"/><rect x="7" y="23" width="4" height="4" fill="#05060f"/><rect x="9" y="23" width="4" height="4" fill="#05060f"/><rect x="2" y="2" width="2" height="2" fill="#29f1ff"/><rect x="2" y="4" width="2" height="2" fill="#29f1ff"/><rect x="4" y="4" width="2" height="2" fill="#29f1ff"/><rect x="2" y="6" width="2" height="2" fill="#29f1ff"/><rect x="4" y="6" width="2" height="2" fill="#29f1ff"/><rect x="6" y="6" width="2" height="2" fill="#29f1ff"/><rect x="2" y="8" width="2" height="2" fill="#29f1ff"/><rect x="4" y="8" width="2" height="2" fill="#29f1ff"/><rect x="6" y="8" width="2" height="2" fill="#29f1ff"/><rect x="8" y="8" width="2" height="2" fill="#29f1ff"/><rect x="2" y="10" width="2" height="2" fill="#29f1ff"/><rect x="4" y="10" width="2" height="2" fill="#29f1ff"/><rect x="6" y="10" width="2" height="2" fill="#29f1ff"/><rect x="8" y="10" width="2" height="2" fill="#29f1ff"/><rect x="10" y="10" width="2" height="2" fill="#29f1ff"/><rect x="2" y="12" width="2" height="2" fill="#29f1ff"/><rect x="4" y="12" width="2" height="2" fill="#29f1ff"/><rect x="6" y="12" width="2" height="2" fill="#29f1ff"/><rect x="8" y="12" width="2" height="2" fill="#29f1ff"/><rect x="10" y="12" width="2" height="2" fill="#29f1ff"/><rect x="12" y="12" width="2" height="2" fill="#29f1ff"/><rect x="2" y="14" width="2" height="2" fill="#29f1ff"/><rect x="4" y="14" width="2" height="2" fill="#29f1ff"/><rect x="6" y="14" width="2" height="2" fill="#29f1ff"/><rect x="8" y="14" width="2" height="2" fill="#29f1ff"/><rect x="10" y="14" width="2" height="2" fill="#29f1ff"/><rect x="12" y="14" width="2" height="2" fill="#29f1ff"/><rect x="14" y="14" width="2" height="2" fill="#29f1ff"/><rect x="2" y="16" width="2" height="2" fill="#29f1ff"/><rect x="4" y="16" width="2" height="2" fill="#29f1ff"/><rect x="6" y="16" width="2" height="2" fill="#29f1ff"/><rect x="8" y="16" width="2" height="2" fill="#29f1ff"/><rect x="10" y="16" width="2" height="2" fill="#29f1ff"/><rect x="12" y="16" width="2" height="2" fill="#29f1ff"/><rect x="14" y="16" width="2" height="2" fill="#29f1ff"/><rect x="16" y="16" width="2" height="2" fill="#29f1ff"/><rect x="2" y="18" width="2" height="2" fill="#29f1ff"/><rect x="4" y="18" width="2" height="2" fill="#29f1ff"/><rect x="6" y="18" width="2" height="2" fill="#29f1ff"/><rect x="8" y="18" width="2" height="2" fill="#29f1ff"/><rect x="10" y="18" width="2" height="2" fill="#29f1ff"/><rect x="12" y="18" width="2" height="2" fill="#29f1ff"/><rect x="14" y="18" width="2" height="2" fill="#29f1ff"/><rect x="16" y="18" width="2" height="2" fill="#29f1ff"/><rect x="18" y="18" width="2" height="2" fill="#29f1ff"/><rect x="6" y="20" width="2" height="2" fill="#29f1ff"/><rect x="8" y="20" width="2" height="2" fill="#29f1ff"/><rect x="10" y="20" width="2" height="2" fill="#29f1ff"/><rect x="6" y="22" width="2" height="2" fill="#29f1ff"/><rect x="8" y="22" width="2" height="2" fill="#29f1ff"/><rect x="10" y="22" width="2" height="2" fill="#29f1ff"/><rect x="6" y="24" width="2" height="2" fill="#29f1ff"/><rect x="8" y="24" width="2" height="2" fill="#29f1ff"/><rect x="10" y="24" width="2" height="2" fill="#29f1ff"/></svg>
